<svg xmlns="http://www.w3.org/2000/svg" width="640" height="300" viewBox="0 0 640 300">
  <defs><linearGradient id="bg" x1="0%" y1="0%" x2="100%" y2="100%"><stop offset="0%" style="stop-color:#3a2a0a"/><stop offset="100%" style="stop-color:#5a4a1a"/></linearGradient></defs>
  <rect width="640" height="300" fill="url(#bg)"/>
  <ellipse cx="295" cy="152" rx="155" ry="65" fill="#b8903a"/>
  <polygon points="450,152 505,112 505,192" fill="#9a7830"/>
  <ellipse cx="148" cy="154" rx="52" ry="50" fill="#c8a048"/>
  <!-- barbels at mouth -->
  <line x1="115" y1="158" x2="85" y2="166" stroke="#7a5820" stroke-width="3" stroke-linecap="round"/>
  <line x1="115" y1="163" x2="82" y2="175" stroke="#7a5820" stroke-width="3" stroke-linecap="round"/>
  <!-- large dorsal -->
  <polygon points="192,88 240,42 360,88" fill="#9a7830"/>
  <polygon points="200,178 170,220 250,215" fill="#9a7830"/>
  <!-- scale pattern -->
  <ellipse cx="250" cy="145" rx="20" ry="20" fill="none" stroke="#8a6828" stroke-width="1.5" opacity="0.5"/>
  <ellipse cx="290" cy="138" rx="20" ry="20" fill="none" stroke="#8a6828" stroke-width="1.5" opacity="0.5"/>
  <ellipse cx="330" cy="143" rx="20" ry="20" fill="none" stroke="#8a6828" stroke-width="1.5" opacity="0.5"/>
  <ellipse cx="370" cy="148" rx="20" ry="20" fill="none" stroke="#8a6828" stroke-width="1.5" opacity="0.5"/>
  <ellipse cx="270" cy="162" rx="20" ry="20" fill="none" stroke="#8a6828" stroke-width="1.5" opacity="0.5"/>
  <ellipse cx="310" cy="158" rx="20" ry="20" fill="none" stroke="#8a6828" stroke-width="1.5" opacity="0.5"/>
  <ellipse cx="350" cy="162" rx="20" ry="20" fill="none" stroke="#8a6828" stroke-width="1.5" opacity="0.5"/>
  <ellipse cx="290" cy="182" rx="115" ry="20" fill="#d8b870" opacity="0.3"/>
  <circle cx="158" cy="143" r="10" fill="#e8c860"/><circle cx="160" cy="143" r="6" fill="#1a1200"/><circle cx="162" cy="141" r="2.5" fill="white"/>
  <rect x="0" y="240" width="640" height="60" fill="rgba(0,0,0,0.45)"/>
  <text x="320" y="268" font-family="Arial,sans-serif" font-size="22" font-weight="bold" fill="white" text-anchor="middle">Common Carp</text>
  <text x="320" y="290" font-family="Arial,sans-serif" font-size="13" fill="#ffcc80" text-anchor="middle">Cyprinus carpio — Ohio River</text>
</svg>