<svg xmlns="http://www.w3.org/2000/svg" width="640" height="300" viewBox="0 0 640 300">
  <defs><linearGradient id="bg" x1="0%" y1="0%" x2="100%" y2="100%"><stop offset="0%" style="stop-color:#37474f"/><stop offset="100%" style="stop-color:#546e7a"/></linearGradient></defs>
  <rect width="640" height="300" fill="url(#bg)"/>
  <ellipse cx="290" cy="152" rx="145" ry="55" fill="#7a8c7a"/>
  <polygon points="435,152 495,110 495,194" fill="#6a7c6a"/>
  <ellipse cx="155" cy="155" rx="48" ry="44" fill="#8a9c8a"/>
  <line x1="130" y1="158" x2="88" y2="172" stroke="#4a5c4a" stroke-width="3" stroke-linecap="round"/>
  <line x1="130" y1="164" x2="83" y2="188" stroke="#4a5c4a" stroke-width="3" stroke-linecap="round"/>
  <line x1="130" y1="153" x2="86" y2="162" stroke="#4a5c4a" stroke-width="3" stroke-linecap="round"/>
  <polygon points="225,95 265,58 305,95" fill="#6a7c6a"/>
  <polygon points="198,172 168,212 242,208" fill="#6a7c6a"/>
  <circle cx="168" cy="145" r="9" fill="white"/><circle cx="170" cy="145" r="5" fill="#1a1a1a"/><circle cx="172" cy="143" r="2" fill="white"/>
  <!-- spots -->
  <circle cx="260" cy="130" r="5" fill="#4a5c4a" opacity="0.6"/>
  <circle cx="295" cy="145" r="4" fill="#4a5c4a" opacity="0.6"/>
  <circle cx="320" cy="125" r="4" fill="#4a5c4a" opacity="0.6"/>
  <rect x="0" y="240" width="640" height="60" fill="rgba(0,0,0,0.45)"/>
  <text x="320" y="268" font-family="Arial,sans-serif" font-size="22" font-weight="bold" fill="white" text-anchor="middle">Channel Catfish</text>
  <text x="320" y="290" font-family="Arial,sans-serif" font-size="13" fill="#b0bec5" text-anchor="middle">Ictalurus punctatus — Ohio River</text>
</svg>