<svg xmlns="http://www.w3.org/2000/svg" width="640" height="300" viewBox="0 0 640 300">
  <defs><linearGradient id="bg" x1="0%" y1="0%" x2="100%" y2="100%"><stop offset="0%" style="stop-color:#3a3a3a"/><stop offset="100%" style="stop-color:#5a5a5a"/></linearGradient></defs>
  <rect width="640" height="300" fill="url(#bg)"/>
  <!-- humped back body -->
  <ellipse cx="295" cy="158" rx="148" ry="62" fill="#909090"/>
  <ellipse cx="275" cy="122" rx="90" ry="35" fill="#a0a0a0"/>
  <polygon points="443,158 500,118 500,198" fill="#787878"/>
  <ellipse cx="155" cy="160" rx="48" ry="46" fill="#a8a8a8"/>
  <polygon points="195,95 235,55 305,95" fill="#787878"/>
  <polygon points="305,95 358,68 395,95" fill="#888888"/>
  <polygon points="200,178 172,218 248,214" fill="#787878"/>
  <!-- scales pattern -->
  <ellipse cx="295" cy="158" rx="148" ry="62" fill="none" stroke="#686868" stroke-width="1" opacity="0.4"/>
  <!-- belly lighter -->
  <ellipse cx="290" cy="192" rx="125" ry="22" fill="#c0c0b8" opacity="0.4"/>
  <circle cx="165" cy="148" r="10" fill="#d8d8c8"/><circle cx="167" cy="148" r="6" fill="#1a1a18"/><circle cx="169" cy="146" r="2.5" fill="white"/>
  <rect x="0" y="240" width="640" height="60" fill="rgba(0,0,0,0.45)"/>
  <text x="320" y="268" font-family="Arial,sans-serif" font-size="22" font-weight="bold" fill="white" text-anchor="middle">Freshwater Drum</text>
  <text x="320" y="290" font-family="Arial,sans-serif" font-size="13" fill="#e0e0e0" text-anchor="middle">Aplodinotus grunniens — Ohio River</text>
</svg>